
<svg width="443" height="356" viewBox="0 0 443 356" fill="none" xmlns="http://www.w3.org/2000/svg">
<g clip-path="url(#clip0)">
<path d="M277.947 154.23C277.947 154.23 258.076 169.825 268.012 173.37C277.947 176.914 284.334 160.61 284.334 160.61L277.947 154.23Z" fill="#FFB8B8"/>
<path d="M278.657 148.559L274.399 155.648C274.399 155.648 281.495 155.648 282.915 166.281L288.592 159.192L278.657 148.559Z" fill="#CFCCE0"/>
<path d="M373.04 310.184L373.75 331.451L365.234 336.413L361.686 334.286L362.396 310.184H373.04Z" fill="#231F1E"/>
<path d="M322.655 304.513L324.074 327.197L304.204 335.704L305.623 323.653C305.623 323.653 311.301 314.438 309.881 304.513H322.655Z" fill="#231F1E"/>
<path d="M353.17 133.672C353.17 133.672 364.525 163.445 366.653 181.876C368.782 200.307 372.331 249.22 372.331 249.22L379.427 312.311L359.557 315.146L351.041 251.347L331.88 188.256L327.623 251.347L324.074 308.766L305.623 309.475L304.204 249.929L296.398 174.079L300.656 137.926L353.17 133.672Z" fill="#231F1E"/>
<path d="M363.815 332.868C363.815 332.868 364.979 320.963 373.622 327.624L375.169 326.488L382.266 342.084C382.266 342.084 390.782 354.135 375.879 355.553C360.976 356.97 362.396 342.084 362.396 342.084L360.976 335.704L361.686 331.526L363.815 332.868Z" fill="#231F1E"/>
<path d="M322.655 318.691C324.402 319.688 325.849 321.135 326.848 322.88C327.846 324.625 328.359 326.605 328.332 328.615C328.332 335.704 327.623 336.413 327.623 336.413L316.978 339.248C316.978 339.248 309.881 338.539 305.623 342.793C301.365 347.046 280.076 349.882 280.076 344.21C280.076 338.539 297.817 329.324 297.817 329.324C297.817 329.324 303.086 320.436 306.838 321.335C310.591 322.235 312.01 323.653 312.01 324.362C312.01 325.071 309.881 330.033 309.881 330.033C309.881 330.033 321.945 327.197 322.655 318.691Z" fill="#231F1E"/>
<path d="M321.236 46.48C331.034 46.48 338.977 38.5456 338.977 28.7579C338.977 18.9703 331.034 11.0359 321.236 11.0359C311.437 11.0359 303.494 18.9703 303.494 28.7579C303.494 38.5456 311.437 46.48 321.236 46.48Z" fill="#FFB8B8"/>
<path d="M334.364 33.3657L342.171 51.0878L320.881 81.5697C320.881 81.5697 319.462 48.2522 315.204 42.5812C310.946 36.9101 334.364 33.3657 334.364 33.3657Z" fill="#FFB8B8"/>
<path d="M324.429 70.2276L327.978 61.0122L330.816 61.7208L334.364 58.8853L339.332 43.29L346.428 48.2521L355.654 141.116L298.172 142.533L305.978 78.0252L313.075 59.5944L318.197 52.8297L321.59 63.1386L324.429 70.2276Z" fill="#CFCCE0"/>
<path d="M340.751 109.925L342.923 45.8008C342.923 45.8008 347.138 46.1255 348.557 48.2521C349.977 50.3788 373.395 54.632 373.395 54.632L369.137 120.558C369.137 120.558 386.879 173.015 380.492 175.851C374.105 178.687 362.751 177.978 362.751 177.978L340.751 109.925Z" fill="#5E9880"/>
<path d="M306.333 101.773L313.861 58.5557L297.107 69.8731L301.365 101.064L297.817 122.33C297.817 122.33 284.334 181.168 288.592 183.294C292.85 185.421 297.817 183.294 297.817 183.294L306.333 123.748V101.773Z" fill="#5E9880"/>
<path d="M302.075 68.4553L297.108 69.8731L294.979 98.2284L291.43 123.039L274.399 153.521C274.399 153.521 282.915 147.85 286.463 164.154L305.22 131.534L302.075 68.4553Z" fill="#5E9880"/>
<path d="M357.428 148.559C357.428 148.559 337.558 164.154 347.493 167.699C357.428 171.243 363.815 154.939 363.815 154.939L357.428 148.559Z" fill="#FFB8B8"/>
<path d="M369.492 156.357L363.106 164.154L354.59 149.268L358.138 142.888L369.492 156.357Z" fill="#CFCCE0"/>
<path d="M368.073 57.1131L373.75 54.2776C373.75 54.2776 378.008 59.9486 378.718 64.9108C379.428 69.873 382.976 76.2529 382.976 79.7974C382.976 83.3418 392.911 116.659 392.911 116.659L370.202 162.737C370.202 162.737 365.234 145.723 354.59 144.306L372.331 119.495L362.396 101.773L368.073 57.1131Z" fill="#5E9880"/>
<path d="M336.088 11.8726L339.434 10.5347C339.434 10.5347 332.438 2.8417 322.706 3.51068L325.443 0.500364C325.443 0.500364 318.752 -2.17542 312.669 4.84855C309.472 8.54089 305.772 12.8811 303.466 17.7702H299.883L301.378 21.0592L296.145 24.3482L301.516 23.7574C301.196 25.5585 301.147 27.3973 301.371 29.2129C301.601 31.029 302.529 32.6847 303.958 33.8304C303.958 33.8304 308.107 25.2516 308.107 23.9137V27.2584C308.107 27.2584 311.453 24.2481 311.453 22.2413L313.278 24.5826L314.19 20.9034L325.443 24.5826L323.618 21.5724L330.614 22.5758L327.876 18.8965C327.876 18.8965 335.784 23.2447 336.088 26.924C336.392 30.6032 338.707 34.0895 338.707 34.0895C338.707 34.0895 344.908 16.8897 336.088 11.8726Z" fill="#7F7F84"/>
<path d="M335.784 28.4033C336.881 28.4033 337.771 27.2925 337.771 25.9223C337.771 24.552 336.881 23.4412 335.784 23.4412C334.686 23.4412 333.797 24.552 333.797 25.9223C333.797 27.2925 334.686 28.4033 335.784 28.4033Z" fill="#FFB8B8"/>
<path d="M82.1167 146.104H20.856V128.957H52.833L82.1167 146.104Z" fill="#5E9880"/>
<path d="M20.6877 143.751V193.849H219.617V143.751H20.6877ZM98.2737 185.444H33.6468V178.383H98.2737V185.444ZM206.658 172.33H33.6468V165.27H206.658V172.33ZM206.658 159.217H33.6468V152.157H206.658V159.217Z" fill="#5DBE96"/>
<path d="M82.1167 65.0726H20.856V47.9246H52.833L82.1167 65.0726Z" fill="#5E9880"/>
<path d="M20.6877 63.7275V113.826H219.617V63.7275H20.6877ZM98.2737 105.42H33.6468V98.3594H98.2737V105.42ZM135.636 92.3073H33.6468V85.2464H135.636L135.636 92.3073ZM206.658 79.1942H33.6468V72.1333H206.658V79.1942Z" fill="#5DBE96"/>
<path d="M82.1167 225.455H20.856V208.307H52.833L82.1167 225.455Z" fill="#5E9880"/>
<path d="M20.6877 222.093V272.191H219.617V222.093H20.6877ZM135.636 263.786H33.6468V256.725H135.636V263.786ZM135.636 250.673H33.6468V243.612H135.636V250.673ZM206.658 237.559H33.6468V230.499H206.658V237.559Z" fill="#5DBE96"/>
<path d="M275.997 102.731H247.723V74.4868H266.909V75.1592H248.396V102.058H275.324V88.6087H275.997V102.731Z" fill="#3F3D56"/>
<path d="M261.715 95.3637C261.061 93.4365 252.868 86.8855 257.888 85.7844L262.006 91.2685L280.936 72.3594L282.84 74.2612L261.715 95.3637Z" fill="#5E9880"/>
<path d="M275.997 182.754H247.723V154.51H266.909V155.183H248.396V182.081H275.324V168.632H275.997V182.754Z" fill="#3F3D56"/>
<path d="M261.715 175.387C261.061 173.46 252.868 166.909 257.888 165.808L262.006 171.292L280.936 152.383L282.84 154.284L261.715 175.387Z" fill="#5E9880"/>
<path d="M275.997 262.441H247.723V234.197H266.909V234.87H248.396V261.768H275.324V248.319H275.997V262.441Z" fill="#3F3D56"/>
<path d="M261.715 255.074C261.061 253.147 252.868 246.596 257.888 245.495L262.006 250.979L280.936 232.07L282.84 233.971L261.715 255.074Z" fill="#5E9880"/>
</g>
<defs>
<clipPath id="clip0">
<rect width="443" height="355.648" fill="white"/>
</clipPath>
</defs>
</svg>
