
<svg width="413" height="400" viewBox="0 0 413 400" fill="none" xmlns="http://www.w3.org/2000/svg">
<g clip-path="url(#clip0)">
<g opacity="0.5">
<path opacity="0.5" d="M252.661 0.00551861L35.0586 99.2854L172.203 400.008L389.805 300.728L252.661 0.00551861Z" fill="url(#paint0_linear)"/>
</g>
<path d="M250.9 3.48418L38.8345 100.238L172.948 394.315L385.014 297.561L250.9 3.48418Z" fill="white"/>
<path d="M194.206 19.9652L89.0037 67.9634L100.628 93.4522L205.831 45.4539L194.206 19.9652Z" fill="url(#paint1_linear)"/>
<path d="M130.242 19.0534C122.122 22.7595 118.613 32.5056 122.407 40.8233C126.201 49.1411 135.861 52.8799 143.981 49.1738C152.101 45.4677 155.61 35.7216 151.816 27.4038C148.022 19.086 138.362 15.3472 130.242 19.0534ZM141.073 42.8024C139.365 43.6315 137.448 43.9324 135.567 43.6667C133.687 43.4011 131.929 42.5808 130.516 41.3108C129.104 40.0408 128.103 38.3786 127.639 36.5365C127.176 34.6944 127.272 32.756 127.916 30.9689C128.559 29.1818 129.721 27.627 131.252 26.5032C132.783 25.3793 134.614 24.7374 136.511 24.6593C138.409 24.5813 140.286 25.0707 141.904 26.065C143.522 27.0594 144.807 28.5135 145.595 30.2417C146.123 31.3638 146.425 32.5788 146.484 33.8176C146.542 35.0563 146.356 36.2944 145.936 37.4612C145.516 38.628 144.871 39.7007 144.036 40.6179C143.202 41.5352 142.195 42.2791 141.073 42.8071V42.8024Z" fill="url(#paint2_linear)"/>
<path d="M193.103 20.4898L90.1169 67.4768L101.23 91.8445L204.216 44.8574L193.103 20.4898Z" fill="#5E9880"/>
<path d="M130.746 20.1643C127.898 21.4631 125.499 23.5774 123.853 26.2399C122.206 28.9024 121.386 31.9935 121.496 35.1221C121.606 38.2508 122.641 41.2766 124.471 43.8168C126.3 46.3571 128.842 48.2976 131.774 49.3931C134.706 50.4886 137.897 50.6899 140.943 49.9714C143.989 49.2529 146.754 47.647 148.888 45.3567C151.022 43.0664 152.429 40.1946 152.931 37.1045C153.433 34.0144 153.008 30.8448 151.709 27.9966C149.967 24.1778 146.78 21.2073 142.849 19.7385C138.918 18.2697 134.564 18.4229 130.746 20.1643ZM141.101 42.8724C139.459 43.6214 137.631 43.8665 135.849 43.5766C134.068 43.2867 132.412 42.4749 131.091 41.2439C129.771 40.0129 128.845 38.4178 128.43 36.6605C128.016 34.9031 128.132 33.0624 128.764 31.3709C129.395 29.6795 130.514 28.2133 131.979 27.1578C133.443 26.1022 135.188 25.5048 136.992 25.4408C138.796 25.3769 140.578 25.8495 142.114 26.7987C143.649 27.748 144.869 29.1313 145.619 30.7739C146.623 32.9768 146.711 35.4885 145.864 37.7565C145.017 40.0244 143.304 41.863 141.101 42.8678V42.8724Z" fill="#5E9880"/>
<path d="M115.929 122.604L70.5239 143.319L91.2352 188.734L136.64 168.018L115.929 122.604Z" fill="url(#paint3_linear)"/>
<path d="M157.126 212.53L111.721 233.246L132.433 278.66L177.837 257.945L157.126 212.53Z" fill="url(#paint4_linear)"/>
<path d="M115.022 125.024L72.9414 144.223L92.1362 186.312L134.216 167.113L115.022 125.024Z" fill="#69F0AE"/>
<path d="M155.685 214.185L113.605 233.384L132.8 275.473L174.88 256.274L155.685 214.185Z" fill="#5E9880"/>
<path d="M206.311 99.0706L148.632 125.386L150.468 129.412L208.147 103.096L206.311 99.0706Z" fill="#E0E0E0"/>
<path d="M246.627 87.973L151.389 131.425L153.225 135.451L248.463 91.9989L246.627 87.973Z" fill="#E0E0E0"/>
<path d="M242.668 97.0713L154.138 137.462L155.974 141.488L244.504 101.097L242.668 97.0713Z" fill="#E0E0E0"/>
<path d="M246.977 188.236L189.298 214.552L191.134 218.578L248.813 192.262L246.977 188.236Z" fill="#E0E0E0"/>
<path d="M287.29 177.134L192.053 220.586L193.889 224.612L289.126 181.16L287.29 177.134Z" fill="#E0E0E0"/>
<path d="M283.333 186.237L194.804 226.628L196.64 230.654L285.169 190.263L283.333 186.237Z" fill="#E0E0E0"/>
<path d="M92.8852 157.515L103.721 161.034L107.287 140.175L112.56 141.617L106.629 167.406L90.2859 160.241L92.8852 157.515Z" fill="url(#paint5_linear)"/>
<path d="M94.2668 157.239L103.689 160.297L106.787 142.158L111.37 143.414L106.213 165.837L92.0034 159.611L94.2668 157.239Z" fill="white"/>
<path d="M135.184 246.957L144.606 250.014L147.705 231.875L152.287 233.131L147.131 255.555L132.921 249.328L135.184 246.957Z" fill="white"/>
<path d="M316.077 249.061L181.527 310.448L201.985 355.307L336.534 293.919L316.077 249.061Z" fill="#E0E0E0"/>
<path d="M296.571 284.812C291.401 283.337 286.109 283.617 284.461 289.531C283.906 291.524 283.841 294.618 281.703 295.645C278.558 297.158 274.764 294.133 272.034 292.901C266.947 290.604 261.725 292.168 258.781 296.994C257.287 299.44 256.648 302.255 256.139 305.041C255.92 306.25 255.892 307.744 255.383 308.883C254.408 311.062 251.356 310.866 249.354 310.782C248.915 310.782 248.467 310.731 248.019 310.684C249.602 308.503 250.392 305.847 250.259 303.155C250.129 298.735 247.259 293.899 242.242 294.441C237.748 294.908 234.584 299.249 235.088 303.641C235.517 307.375 237.949 310.269 241.066 312.043C239.535 312.719 237.902 313.247 236.455 313.947C235.78 314.274 235.124 314.641 234.491 315.044C230.118 312.934 224.373 312.537 220.439 314.689C218.535 315.73 219.926 318.825 221.839 317.775C224.835 316.136 228.139 316.547 231.271 317.588L231.532 317.681C231.223 318.078 230.949 318.501 230.715 318.946C228.947 322.382 230.715 327.815 235.018 328.188C241.085 328.706 241.369 320.687 238.075 317.494C237.935 317.359 237.795 317.228 237.645 317.102C239.008 316.444 240.483 315.95 241.785 315.394C242.919 314.914 243.998 314.313 245.005 313.602L245.238 313.662C249.872 314.713 257.105 315.039 258.771 309.424C260.199 304.551 260.335 294.203 268.035 295.16C271.175 295.547 273.751 297.96 276.738 298.833C279.412 299.631 282.506 299.664 284.699 297.694C286.51 296.07 286.916 293.671 287.471 291.43C287.756 290.273 288.036 288.891 288.979 288.065C290.682 286.576 293.496 287.453 295.395 287.995C297.472 288.583 298.676 285.409 296.571 284.812ZM236.371 324.295C235.349 325.308 234.267 324.505 233.721 323.446C233.058 322.157 233.343 320.888 234.187 319.754C234.325 319.568 234.473 319.391 234.631 319.222C236.651 320.528 238.303 322.4 236.39 324.295H236.371ZM239.955 299.09C242.055 297.139 244.981 297.568 246.232 300.247C247.483 302.927 246.932 306.708 245.177 309.069C244.945 309.379 244.687 309.67 244.407 309.938C243.184 309.529 242.054 308.883 241.08 308.038C238.597 305.797 237.193 301.657 239.974 299.076L239.955 299.09Z" fill="#313131"/>
<path d="M324.557 103.487L286.888 118.176C279.804 117.648 264.899 115.725 250.105 108.747C233.637 100.98 214.769 100.999 198.772 109.135C161.905 110.017 141.615 105.293 130.788 100.822L133.644 94.959L95.4613 80.0691L0 37.276V212.668L33.4087 227.558L51.3287 184.559L90.6827 202.763L98.238 183.561L124.077 202.74L125.837 204.22L123.415 206.735C121.194 209.081 119.956 212.189 119.956 215.42C119.956 218.65 121.194 221.758 123.415 224.104C124.489 225.24 125.784 226.145 127.221 226.764C128.657 227.382 130.204 227.701 131.768 227.701C133.332 227.701 134.879 227.382 136.315 226.764C137.752 226.145 139.047 225.24 140.121 224.104L138.796 225.504C136.575 227.85 135.338 230.958 135.338 234.188C135.338 237.419 136.575 240.527 138.796 242.873C139.871 244.009 141.166 244.914 142.602 245.532C144.038 246.151 145.586 246.47 147.149 246.47C148.713 246.47 150.26 246.151 151.697 245.532C153.133 244.914 154.428 244.009 155.503 242.873L163.156 234.914L157.901 240.375C155.681 242.721 154.443 245.829 154.443 249.06C154.443 252.29 155.681 255.398 157.901 257.744C158.976 258.88 160.271 259.785 161.707 260.404C163.144 261.022 164.691 261.341 166.255 261.341C167.818 261.341 169.366 261.022 170.802 260.404C172.238 259.785 173.533 258.88 174.608 257.744L182.163 249.888L178.985 253.193C177.433 254.831 176.568 257.003 176.568 259.261C176.568 261.518 177.433 263.69 178.985 265.329C179.736 266.122 180.64 266.754 181.643 267.186C182.646 267.617 183.727 267.84 184.819 267.84C185.911 267.84 186.991 267.617 187.994 267.186C188.997 266.754 189.901 266.122 190.652 265.329L195.692 260.092C204.349 266.416 211.353 271.033 214.783 272.227C229.077 277.185 229.077 267.256 229.077 267.256C248.169 277.18 257.717 257.333 257.717 257.333C281.582 267.256 281.582 242.443 281.582 242.443C287.546 246.579 291.849 244.684 294.854 241.043C298.947 236.104 299.446 229.136 296.637 223.544L319.447 202.46L329.313 222.634L368.667 204.43L386.587 244.165L412.977 232.38V58.8219L324.557 103.487Z" fill="url(#paint6_linear)"/>
<path d="M318.22 195.332L276.677 232.263L244.37 172.246L318.22 153.781V195.332Z" fill="#BE7C5E"/>
<path d="M119.747 98.3804C119.747 98.3804 133.079 116.846 212.058 112.229L258.216 181.479L289.147 216.286C294.005 221.756 294.28 230.05 289.511 235.596C286.613 238.961 282.445 240.73 276.677 236.879C276.677 236.879 276.677 259.961 253.601 250.728C253.601 250.728 244.37 269.193 225.909 259.961C225.909 259.961 225.909 269.194 212.063 264.577C198.217 259.961 124.362 199.949 124.362 199.949L92.0547 176.867L119.747 98.3804Z" fill="#FDA57D"/>
<path d="M285.908 121.467C285.908 121.467 265.963 121.467 246.241 112.509C228.307 104.374 207.424 105.41 190.876 116.09C177.389 124.795 165.704 139.208 165.923 163.014C165.923 163.014 183.871 181.479 202.846 144.548H216.692C216.692 144.548 230.025 190.716 267.465 186.09C304.906 181.465 313.623 176.858 313.623 176.858L285.908 121.467Z" fill="#BE7C5E"/>
<path d="M164.733 212.624L163.235 211.126C159.187 207.077 152.625 207.077 148.577 211.126L137.849 221.856C133.802 225.904 133.802 232.468 137.849 236.517L139.347 238.015C143.395 242.064 149.958 242.064 154.005 238.015L164.733 227.285C168.781 223.237 168.781 216.673 164.733 212.624Z" fill="#BE7C5E"/>
<path d="M149.857 195.184L148.358 193.686C144.311 189.637 137.748 189.637 133.701 193.686L122.973 204.416C118.925 208.465 118.925 215.028 122.973 219.077L124.471 220.575C128.519 224.624 135.081 224.624 139.129 220.575L149.857 209.845C153.904 205.797 153.904 199.233 149.857 195.184Z" fill="#BE7C5E"/>
<path d="M185.5 224.162L184.002 222.663C179.954 218.615 173.392 218.615 169.344 222.663L156.31 235.701C152.262 239.749 152.262 246.313 156.31 250.362L157.808 251.86C161.856 255.909 168.418 255.909 172.466 251.86L185.5 238.823C189.548 234.774 189.548 228.21 185.5 224.162Z" fill="#BE7C5E"/>
<path d="M196.431 240.224L195.385 239.178C192.558 236.351 187.975 236.351 185.149 239.178L176.922 247.406C174.095 250.233 174.095 254.817 176.922 257.645L177.968 258.691C180.795 261.518 185.378 261.518 188.204 258.691L196.431 250.463C199.257 247.635 199.257 243.051 196.431 240.224Z" fill="#BE7C5E"/>
<path d="M364.373 204.565L322.835 223.03L281.293 121.467L318.22 107.618L364.373 204.565Z" fill="white"/>
<path d="M50.5166 181.483L92.0546 199.949L133.597 98.385L96.6699 84.5314L50.5166 181.483Z" fill="white"/>
<path d="M4.35864 42.9845L96.67 84.5314L36.6706 223.03L4.35864 209.181V42.9845Z" fill="#3F3D56"/>
<path d="M410.531 66.066L318.22 107.618L378.224 246.112L410.531 232.263V66.066Z" fill="#5E9880"/>
</g>
<defs>
<linearGradient id="paint0_linear" x1="281.006" y1="350.367" x2="143.813" y2="49.6666" gradientUnits="userSpaceOnUse">
<stop stop-color="#808080" stop-opacity="0.25"/>
<stop offset="0.54" stop-color="#808080" stop-opacity="0.12"/>
<stop offset="1" stop-color="#808080" stop-opacity="0.1"/>
</linearGradient>
<linearGradient id="paint1_linear" x1="66383.6" y1="-25472" x2="65685.7" y2="-27001.7" gradientUnits="userSpaceOnUse">
<stop stop-color="#808080" stop-opacity="0.25"/>
<stop offset="0.54" stop-color="#808080" stop-opacity="0.12"/>
<stop offset="1" stop-color="#808080" stop-opacity="0.1"/>
</linearGradient>
<linearGradient id="paint2_linear" x1="19617.7" y1="-5060.69" x2="18646.5" y2="-7189.35" gradientUnits="userSpaceOnUse">
<stop stop-color="#808080" stop-opacity="0.25"/>
<stop offset="0.54" stop-color="#808080" stop-opacity="0.12"/>
<stop offset="1" stop-color="#808080" stop-opacity="0.1"/>
</linearGradient>
<linearGradient id="paint3_linear" x1="26887.8" y1="6045.99" x2="24672.4" y2="1190.18" gradientUnits="userSpaceOnUse">
<stop stop-color="#808080" stop-opacity="0.25"/>
<stop offset="0.54" stop-color="#808080" stop-opacity="0.12"/>
<stop offset="1" stop-color="#808080" stop-opacity="0.1"/>
</linearGradient>
<linearGradient id="paint4_linear" x1="31368.1" y1="15727.4" x2="29152.5" y2="10871.2" gradientUnits="userSpaceOnUse">
<stop stop-color="#808080" stop-opacity="0.25"/>
<stop offset="0.54" stop-color="#808080" stop-opacity="0.12"/>
<stop offset="1" stop-color="#808080" stop-opacity="0.1"/>
</linearGradient>
<linearGradient id="paint5_linear" x1="12340.4" y1="3623.9" x2="11747.1" y2="2323.54" gradientUnits="userSpaceOnUse">
<stop stop-color="#808080" stop-opacity="0.25"/>
<stop offset="0.54" stop-color="#808080" stop-opacity="0.12"/>
<stop offset="1" stop-color="#808080" stop-opacity="0.1"/>
</linearGradient>
<linearGradient id="paint6_linear" x1="247629" y1="143518" x2="247629" y2="23855.4" gradientUnits="userSpaceOnUse">
<stop stop-color="#808080" stop-opacity="0.25"/>
<stop offset="0.54" stop-color="#808080" stop-opacity="0.12"/>
<stop offset="1" stop-color="#808080" stop-opacity="0.1"/>
</linearGradient>
<clipPath id="clip0">
<rect width="413" height="400" fill="white"/>
</clipPath>
</defs>
</svg>
