
<svg width="557" height="471" viewBox="0 0 557 471" fill="none" xmlns="http://www.w3.org/2000/svg">
<g clip-path="url(#clip0)">
<path opacity="0.1" d="M189.337 18.0587C207.124 2.21648 235.029 -1.01403 260.435 0.249363C340.228 4.2113 412.264 42.7336 474.546 86.3038C497.105 102.074 519.308 119.074 533.948 140.796C563.748 185.014 554.91 246.272 513.445 282.7C499.349 295.09 482.254 304.593 464.683 313.016C433.481 327.977 399.818 340.012 364.388 343.437C339.137 345.875 313.575 343.891 288.474 340.489C218.333 330.974 149.484 309.94 91.7619 273.956C66.4498 258.169 42.595 238.548 32.1666 213.003C21.7381 187.458 28.4983 155.153 54.3423 140.009C65.0313 133.758 77.8092 130.932 90.3212 128.284C108.735 124.405 127.447 120.526 144.071 112.602C161.248 104.412 181.562 88.5646 178.165 70.4284C174.514 50.9788 171.605 33.8843 189.337 18.0587Z" fill="#6C63FF"/>
<path d="M293.433 471C438.905 471 556.833 452.877 556.833 430.522C556.833 408.166 438.905 390.043 293.433 390.043C147.961 390.043 30.0332 408.166 30.0332 430.522C30.0332 452.877 147.961 471 293.433 471Z" fill="#231F1E"/>
<path d="M434.617 295.068C434.617 295.068 431.237 294.043 426.743 292.751C424.779 291.716 422.619 291.108 420.404 290.967C415.101 289.51 409.654 288.125 406.706 287.692C399.729 286.667 387.411 282.777 387.411 282.777C382.69 283.187 377.764 279.702 377.764 279.702C377.764 279.702 372.672 270.481 369.713 268.453C369.597 268.366 369.473 268.29 369.342 268.226C368.926 267.984 368.536 267.7 368.178 267.378C365.136 257.46 358.492 256.85 358.148 256.817C356.863 255.36 355.699 254.019 354.824 252.977C358.248 234.458 368.494 213.784 392.038 196.307C392.038 196.307 406.024 179.939 397.895 160.999C389.766 142.059 387.489 141.743 373.514 145.273L341.924 160.362C341.924 160.362 333.014 162.478 315.714 163.454C314.273 160.567 312.035 158.178 308.959 157.436C302.476 155.873 296.824 162.661 290.601 160.794C285.853 159.37 280.118 153.768 275.452 159.193C274.792 159.957 274.344 160.894 273.723 161.68C273.285 162.217 272.77 162.686 272.194 163.071C261.588 162.373 249.813 161.209 236.896 159.398L208.936 142.708C208.936 142.708 191.703 134.684 191.054 155.868C190.406 177.052 188.777 186.998 196.252 192.778C201.671 196.961 219.37 225.57 225.997 250.168C225.022 251.564 224.418 252.445 224.418 252.445C224.418 252.445 205.528 278.062 204.093 278.677C203.998 278.716 203.96 278.854 203.965 279.065C203.688 279.663 202.857 280.81 200.192 281.547C196.496 282.572 180.077 287.487 177.816 287.487C175.556 287.487 165.299 288.102 164.268 292.203C164.917 292.171 165.566 292.184 166.213 292.242L165.72 292.868C162.916 296.47 158.195 303.18 157.907 307.774C157.491 314.329 159.342 334.615 170.02 334.41C180.698 334.205 175.766 304.089 175.766 304.089L177.018 300.409L177.052 300.321L177.916 306.377C178.105 306.272 178.287 306.167 178.47 306.078C179.44 309.026 182.959 311.913 192.911 312.112C192.911 312.112 208.304 313.548 219.802 336.493C230.236 357.328 264.868 376.639 290.208 376.495V410.258L286.723 411.283L241.468 412.059C240.714 412.069 239.993 412.367 239.451 412.891C238.91 413.415 238.588 414.126 238.553 414.879L238.276 420.708L251.398 421.944L210.559 431.78C210.559 431.78 203.356 431.164 204.602 441.41H214.665L214.87 439.36L296.569 433.625L301.296 434.799C300.637 438.252 299.972 441.067 299.8 441.804L299.75 441.992C299.75 441.992 299.75 442.125 299.683 442.369C299.201 442.203 298.93 442.092 298.93 442.092C297.822 443.355 297.184 456.538 297.085 457.873C296.985 459.208 302.216 460.815 302.216 460.815C304.587 461.685 313.791 460.815 313.791 460.815C316.833 460.638 324.996 457.779 324.996 457.779L324.275 443.333C323.921 443.449 323.566 443.555 323.211 443.654C323.233 443.451 323.256 443.241 323.278 443.023C323.35 442.175 323.411 441.266 323.466 440.33L360.005 449.389H361.03V451.235H372.323C372.323 451.235 373.348 443.449 369.242 440.989C365.136 438.529 343.581 430.128 343.581 430.128L348.745 429.641L369.331 427.685C369.331 428.05 369.331 428.239 369.331 428.239H372.406L372.339 427.38L378.052 426.826L384.824 427.031C384.824 427.031 384.619 418.425 379.487 417.81C378.601 417.699 375.686 417.406 371.486 416.985L370.151 400.766C373.425 395.224 381.854 412.031 381.854 412.031C381.854 412.031 381.887 412.158 381.937 412.369C382.341 414.092 384.231 421.789 385.511 422.67H385.55C386.264 423.058 387.005 423.397 387.766 423.684C391.084 424.913 394.536 425.74 398.05 426.15C404.622 426.975 418.991 422.67 421.695 421.235C422.145 421.006 422.538 420.681 422.847 420.282C423.762 418.985 422.687 417.583 422.687 417.583L419.8 417.289C422.337 416.142 422.825 411.881 418.087 411.072C417.904 411.039 417.716 411.017 417.533 410.995C417.779 410.575 418.065 410.179 418.387 409.814C415.921 410.285 409.349 407.304 409.349 407.304C408.4 406.894 407.413 406.582 406.401 406.373L406.329 406.246C406.229 406.063 406.135 405.875 406.046 405.692C404.628 402.716 404.09 399.042 403.603 396.272C402.578 390.326 390.57 367.38 390.57 367.38C390.57 367.38 386.386 357.827 382.812 347.687C387.062 344.057 390.343 340.001 392.232 335.496L395.756 330.077C398.108 327.07 400.194 323.864 401.99 320.496L405.575 314.988C412.258 314.501 423.246 313.736 428.893 313.553C430.511 322.325 432.472 332.487 433.359 335.247C435.021 340.372 443.422 334.427 446.702 321.316C449.982 308.206 434.617 295.068 434.617 295.068ZM308.062 403.17V374.356C309.818 374.079 311.752 373.752 313.83 373.381C312.589 380.734 311.059 387.461 311.059 387.461C311.192 391.057 309.176 399.059 308.062 403.17ZM373.819 394.1L374.883 394.454C376.596 395.058 378.145 396.054 379.404 397.363C377.643 396.112 375.774 395.02 373.819 394.1ZM367.286 367.607C367.286 367.607 369.752 372.323 364.826 380.108C361.13 385.948 363.324 389.373 368.643 392.016C366.893 391.414 365.105 390.927 363.291 390.559L363.551 390.708C359.218 389.761 361.335 393.629 361.335 393.629C365.64 397.807 367.635 408.363 368.538 416.735C357.234 415.627 339.469 413.893 325.112 412.507C325.357 411.075 325.52 409.63 325.6 408.18C325.6 405.719 328.27 396.089 328.27 396.089C328.27 396.089 335.945 378.219 340.178 367.458C348.186 365.273 356.028 362.522 363.645 359.223C365.623 363.562 367.286 367.607 367.286 367.607Z" fill="url(#paint0_linear)"/>
<path d="M308.333 369.391H290.685V419.91H308.333V369.391Z" fill="#5E9880"/>
<path d="M239.628 414.136L239.351 419.91L252.34 421.129L211.961 430.871C211.961 430.871 204.863 430.261 206.082 440.407H216.023L216.222 438.379L296.974 432.694L359.667 448.32H360.681V450.143H371.841C371.841 450.143 372.855 442.435 368.793 440.003C364.731 437.57 343.437 429.247 343.437 429.247L377.52 426L384.214 426.205C384.214 426.205 384.015 417.683 378.939 417.073C373.863 416.464 302.216 409.565 302.216 409.565H290.685L287.232 410.601L242.532 411.338C241.782 411.346 241.064 411.64 240.524 412.16C239.984 412.68 239.664 413.387 239.628 414.136Z" fill="#5E9880"/>
<path opacity="0.1" d="M308.333 369.391V375.249C301.977 376.263 297.988 376.695 297.988 376.695C295.578 377.133 293.134 377.354 290.685 377.354V369.391H308.333Z" fill="black"/>
<path d="M445.389 321.477C442.142 334.46 433.824 340.345 432.195 335.269C430.721 330.642 426.189 305.042 425.418 300.62C425.346 300.199 425.302 299.966 425.302 299.966L424.493 294.696L431.364 295.317L433.414 295.505C433.414 295.505 448.63 308.488 445.389 321.477Z" fill="#FEC3BE"/>
<path d="M181.124 300.005C181.124 300.005 174.026 311.974 194.518 312.378C194.518 312.378 209.734 313.797 221.115 336.521C232.497 359.245 272.853 380.141 298.01 375.476C298.01 375.476 382.236 366.388 392.304 333.485L399.253 315.625C399.253 315.625 428.067 313.409 431.104 313.797C434.14 314.185 432.118 305.485 432.118 305.485L424.609 300.01L406.756 303.052L386.469 321.715L323.145 351.538L262.076 342.81C262.076 342.81 213.79 311.78 213.385 310.35C212.981 308.921 193.908 295.943 193.908 295.943L181.124 300.005Z" fill="#231F1E"/>
<path d="M180.421 293.067V296.115L178.808 300.792L177.567 304.432C177.567 304.432 182.432 334.26 171.887 334.46C161.342 334.659 159.519 314.573 159.924 308.089C160.212 303.54 164.878 296.896 167.648 293.333C168.828 291.804 169.665 290.84 169.665 290.84L180.421 293.067Z" fill="#FEC3BE"/>
<path d="M412.823 296.874L395.468 316.268C354.009 364.255 275.917 346.456 248.627 342.644C221.337 338.832 207.378 297.206 207.378 297.206C208.413 297.318 209.459 297.275 210.482 297.079C215.075 296.292 223.686 292.491 228.701 275.596C235.771 251.769 205.24 199.959 197.848 194.24C190.456 188.522 192.063 178.67 192.705 157.669C193.348 136.668 210.36 144.625 210.36 144.625L237.999 161.148C305.806 170.685 341.802 162.102 341.802 162.102L372.971 147.168C386.791 143.672 389.04 143.987 397.075 162.739C405.11 181.49 391.29 197.698 391.29 197.698C344.694 232.336 350.801 279.707 358.187 297.168C363.174 308.943 386.214 304.715 400.738 300.697C407.781 298.775 412.823 296.874 412.823 296.874Z" fill="#5E9880"/>
<path d="M406.734 295.638L390.304 314.185C351.045 360.138 277.092 343.093 251.22 339.441C225.349 335.79 212.166 295.921 212.166 295.921C213.144 296.026 214.132 295.985 215.097 295.799C219.453 295.045 227.604 291.405 232.353 275.23C239.046 252.401 210.138 202.796 203.14 197.321C196.141 191.847 197.648 182.427 198.269 162.356C198.89 142.286 215.009 149.878 215.009 149.878L241.18 165.681C305.391 174.807 339.48 166.595 339.48 166.595L368.998 152.288C382.086 148.963 384.214 149.246 391.822 167.199C399.43 185.153 386.348 200.679 386.348 200.679C342.218 233.838 347.997 279.209 355.018 295.943C359.728 307.219 381.554 303.147 395.308 299.323C401.963 297.461 406.734 295.638 406.734 295.638Z" fill="#5E9880"/>
<path d="M433.414 295.505C433.414 295.505 426.111 294.896 425.302 299.966L374.783 304.21L362.221 305.241L348.922 258.557L346.39 249.652L352.679 251.68C352.679 251.68 355.006 254.451 357.916 257.731C362.005 262.364 367.252 268.099 368.909 268.924C369.038 268.989 369.16 269.065 369.275 269.151C372.195 271.157 377.227 280.289 377.227 280.289C377.227 280.289 382.097 283.741 386.768 283.331C386.768 283.331 398.959 287.182 405.836 288.202C412.712 289.222 433.414 295.505 433.414 295.505Z" fill="#3F3D56"/>
<path opacity="0.1" d="M406.733 295.638L390.304 314.185C351.045 360.138 277.092 343.093 251.22 339.441C225.348 335.79 212.166 295.921 212.166 295.921C213.144 296.026 214.132 295.985 215.097 295.799C218.677 298.776 221.973 302.078 224.944 305.662C253.553 339.547 296.979 337.314 296.979 337.314C296.979 337.314 359.872 344.816 383 309.514C386.819 305.786 390.931 302.371 395.296 299.301C401.962 297.461 406.733 295.638 406.733 295.638Z" fill="black"/>
<path opacity="0.1" d="M433.414 295.505C433.414 295.505 426.111 294.896 425.302 299.966L374.783 304.21L362.221 305.241L348.922 258.557L346.39 249.652L352.679 251.68C352.679 251.68 355.006 254.451 357.916 257.731C362.005 262.364 367.252 268.099 368.909 268.924C369.038 268.989 369.16 269.065 369.275 269.151C372.195 271.157 377.227 280.289 377.227 280.289C377.227 280.289 382.097 283.741 386.768 283.331C386.768 283.331 398.959 287.182 405.836 288.202C412.712 289.222 433.414 295.505 433.414 295.505Z" fill="black"/>
<path opacity="0.1" d="M434.024 296.115C434.024 296.115 426.72 295.505 425.911 300.576L425.418 300.62C425.346 300.199 425.302 299.966 425.302 299.966L424.493 294.696L431.364 295.317L434.024 296.115Z" fill="black"/>
<path opacity="0.1" d="M391.551 335.518C379.36 348.961 356.143 364.499 314.218 363.097C314.218 363.097 238.747 372.639 210.947 315.221C210.947 315.221 200.186 295.494 180.249 306.399L179.695 306.699L178.476 298.176C178.476 298.176 196.33 274.233 224.933 308.117C253.537 342.001 296.968 339.768 296.968 339.768C296.968 339.768 359.866 347.271 382.995 311.968C382.995 311.968 415.688 278.904 431.081 299.19L431.918 305.347L432.101 306.699C432.101 306.699 416.065 301.418 404.739 315.215L391.551 335.518Z" fill="black"/>
<path d="M178.487 296.957C178.487 296.957 196.34 273.019 224.95 306.898C228.209 310.763 231.81 314.326 235.711 317.543C263.289 340.284 296.974 338.566 296.974 338.566C296.974 338.566 359.866 346.074 382.995 310.771C382.995 310.771 415.688 277.702 431.081 297.988L432.095 305.496C432.095 305.496 414.862 299.778 403.492 315.625C403.492 315.625 387.057 364.316 314.218 361.883C314.218 361.883 238.747 371.42 210.947 314.002C210.947 314.002 199.992 293.915 179.706 305.479L178.487 296.957Z" fill="#59B48E"/>
<path opacity="0.1" d="M342.932 195.942L341.469 196.058C339.912 192.988 339.519 179.434 340.084 166.629L338.871 166.579C338.605 172.602 338.034 190.506 340.295 196.147C325.965 197.21 262.319 201.538 239.612 196.113C247.469 179.523 241.8 165.598 241.739 165.454L240.631 165.925C240.687 166.064 246.089 179.307 238.686 195.293C234.99 189.508 215.458 160.489 198.069 164.263L198.33 165.454C214.399 161.952 233.267 189.22 237.412 195.554L236.669 195.365L238.276 196.917L238.83 197.787L238.936 197.576C241.861 200.724 254.9 216.078 254.19 238.913C253.991 245.369 258.258 251.159 266.531 255.67C275.818 260.735 288.457 263.372 299.822 263.372C308.937 263.372 317.238 261.677 322.319 258.174C326.414 255.354 328.248 251.47 327.633 246.931C324.27 222.168 343.414 197.321 343.736 196.911C369.946 165.543 391.562 167.792 391.778 167.815L391.927 166.607C390.996 166.496 369.541 164.207 342.932 195.942ZM326.397 247.092C326.952 251.204 325.345 254.595 321.604 257.172C310.699 264.68 283.187 263.383 267.085 254.606C261.616 251.619 255.149 246.488 255.382 238.952C256.052 217.275 244.576 202.186 240.542 197.576C264.735 202.685 327.982 198.291 340.943 197.316C341.102 197.525 341.312 197.691 341.553 197.798C337.314 203.821 323.433 225.443 326.397 247.092Z" fill="black"/>
<path opacity="0.1" d="M322.945 421.329L348.54 428.754L343.437 429.242L322.945 421.329Z" fill="black"/>
<path opacity="0.1" d="M252.34 421.124L270.803 416.663L247.253 420.647L252.34 421.124Z" fill="black"/>
<path opacity="0.1" d="M180.421 293.067V296.115L178.808 300.792C176.658 294.896 170.779 293.588 167.637 293.328C168.817 291.798 169.654 290.834 169.654 290.834L180.421 293.067Z" fill="black"/>
<path d="M210.038 280.289L205.578 279.275C205.578 279.275 205.373 281.098 201.699 282.112C198.025 283.126 181.817 287.997 179.584 287.997C177.351 287.997 167.205 288.607 166.191 292.663C166.191 292.663 178.165 291.854 179.988 302.404L214.682 300.781L210.038 280.289Z" fill="#3F3D56"/>
<path opacity="0.1" d="M210.038 280.289L205.578 279.275C205.578 279.275 205.373 281.098 201.699 282.112C198.025 283.126 181.817 287.997 179.584 287.997C177.351 287.997 167.205 288.607 166.191 292.663C166.191 292.663 178.165 291.854 179.988 302.404L214.682 300.781L210.038 280.289Z" fill="black"/>
<path d="M362.919 390.049C362.919 390.049 373.11 395.867 376.994 401.497C379.677 405.547 382.084 409.773 384.198 414.148C384.198 414.148 391.806 417.472 386.253 405.381C380.701 393.291 362.919 390.049 362.919 390.049Z" fill="#3F3D56"/>
<path d="M362.919 390.049C362.919 390.049 373.11 395.867 376.994 401.497C379.677 405.547 382.084 409.773 384.198 414.148C384.198 414.148 391.806 417.472 386.253 405.381C380.701 393.291 362.919 390.049 362.919 390.049Z" fill="#3F3D56"/>
<path opacity="0.1" d="M362.919 390.049C362.919 390.049 373.11 395.867 376.994 401.497C379.677 405.547 382.084 409.773 384.198 414.148C384.198 414.148 391.806 417.472 386.253 405.381C380.701 393.291 362.919 390.049 362.919 390.049Z" fill="black"/>
<path d="M276.1 160.971C275.452 161.73 274.992 162.633 274.399 163.431C271.817 166.64 266.952 166.501 263.25 168.302C258.186 170.768 255.736 176.863 255.881 182.499C256.025 188.134 258.258 193.47 260.352 198.707C262.447 203.943 264.464 209.407 264.165 215.031C263.987 218.356 263.001 221.592 262.02 224.778C261.383 226.839 260.613 229.083 258.762 230.192C264.305 231.184 269.921 231.726 275.552 231.81C291.71 232.059 307.873 228.568 323.954 230.175C322.017 228.419 320.572 226.187 319.763 223.701C318.953 221.215 318.807 218.561 319.338 216.001C319.787 213.984 320.646 212.088 321.316 210.132C323.544 203.559 323.566 196.438 321.377 189.852C320.723 187.907 319.881 186.023 319.327 184.05C318.052 179.462 318.39 174.58 317.482 169.909C316.573 165.238 313.847 160.351 309.22 159.231C302.814 157.685 297.229 164.401 291.072 162.556C286.379 161.148 280.716 155.596 276.1 160.971Z" fill="#3F3D56"/>
<g opacity="0.1">
<path opacity="0.1" d="M321.477 210.205C322.653 206.717 323.215 203.051 323.139 199.372C323.081 202.643 322.521 205.885 321.477 208.986C320.806 210.942 319.942 212.864 319.499 214.854C319.237 216.06 319.134 217.295 319.194 218.527C319.223 217.702 319.325 216.88 319.499 216.073C319.942 214.056 320.806 212.161 321.477 210.205Z" fill="black"/>
<path opacity="0.1" d="M264.342 213.335C264.491 207.899 262.535 202.613 260.507 197.549C258.429 192.351 256.218 187.048 256.047 181.479C256.047 181.845 256.047 182.216 256.047 182.587C256.191 188.217 258.424 193.559 260.513 198.79C262.386 203.461 264.198 208.348 264.342 213.335Z" fill="black"/>
<path opacity="0.1" d="M322.812 228.923C307.159 227.62 291.433 230.906 275.712 230.668C270.485 230.584 265.271 230.11 260.114 229.25C259.774 229.649 259.371 229.992 258.923 230.264C264.466 231.256 270.081 231.798 275.712 231.882C291.87 232.131 308.028 228.634 324.109 230.219C323.649 229.816 323.216 229.383 322.812 228.923Z" fill="black"/>
</g>
<path d="M301.556 455.551L314.933 458.017L314.013 459.613C314.013 459.613 304.914 460.477 302.57 459.613C300.227 458.749 301.556 455.551 301.556 455.551Z" fill="#3F3D56"/>
<path d="M315.337 342.04C315.337 342.04 370.805 324.552 368.776 313.392C366.748 302.232 317.493 299.539 315.337 302.404C313.182 305.269 315.337 342.04 315.337 342.04Z" fill="#3F3D56"/>
<path opacity="0.2" d="M315.337 342.04C315.337 342.04 370.805 324.552 368.776 313.392C366.748 302.232 317.493 299.539 315.337 302.404C313.182 305.269 315.337 342.04 315.337 342.04Z" fill="black"/>
<path d="M315.337 233.622L304.809 242.958L291.416 245.391L267.273 242.349L253.681 233.012C253.681 233.012 256.08 232.486 262.813 230.984L268.287 229.77C279.248 227.332 274.781 209.268 274.781 209.268C274.781 209.268 304.809 193.243 300.958 213.529C298.858 224.584 303.319 229.554 307.818 231.815C310.168 232.944 312.731 233.56 315.337 233.622Z" fill="#FEC3BE"/>
<path opacity="0.1" d="M289.549 221.564C302.439 221.564 312.888 211.114 312.888 198.224C312.888 185.334 302.439 174.885 289.549 174.885C276.659 174.885 266.209 185.334 266.209 198.224C266.209 211.114 276.659 221.564 289.549 221.564Z" fill="black"/>
<path d="M289.549 220.954C302.439 220.954 312.888 210.505 312.888 197.615C312.888 184.725 302.439 174.276 289.549 174.276C276.659 174.276 266.209 184.725 266.209 197.615C266.209 210.505 276.659 220.954 289.549 220.954Z" fill="#FEC3BE"/>
<path opacity="0.1" d="M315.337 233.621L304.809 242.958L291.416 245.391L267.273 242.349L253.681 233.012C253.681 233.012 256.08 232.486 262.813 230.984L264.231 231.798H307.818C310.167 232.933 312.73 233.554 315.337 233.621Z" fill="black"/>
<path d="M285.31 232.408H309.192C309.192 232.408 317.365 229.36 320.003 231.189C322.641 233.018 330.149 233.217 331.163 232.408C332.177 231.599 347.188 239.933 352.668 251.68L333.191 267.085L248.588 300.781C248.588 300.781 244.71 294.081 246.15 291.854C247.591 289.626 243.513 285.371 243.513 285.371C243.513 285.371 242.094 277.862 243.513 275.635L225.659 253.315C225.659 253.315 238.038 235.256 240.881 233.433C240.881 233.433 241.895 230.441 242.909 230.618C243.923 230.796 262.015 231.172 262.015 231.172L264.231 232.425L285.31 232.408Z" fill="#3F3D56"/>
<path opacity="0.1" d="M285.31 232.408H309.192C309.192 232.408 317.365 229.36 320.003 231.189C322.641 233.018 330.149 233.217 331.163 232.408C332.177 231.599 347.188 239.933 352.668 251.68L350.646 253.282L333.191 267.085L248.588 300.781C248.588 300.781 244.71 294.081 246.15 291.854C247.591 289.626 243.513 285.371 243.513 285.371C243.513 285.371 242.094 277.862 243.513 275.635L225.659 253.315C225.659 253.315 238.038 235.256 240.881 233.433C240.881 233.433 241.895 230.441 242.909 230.618C243.923 230.796 262.015 231.172 262.015 231.172L264.231 232.425L285.31 232.408Z" fill="black"/>
<path d="M233.167 251.071L225.659 253.287C225.659 253.287 206.996 278.666 205.578 279.275C204.159 279.885 214.704 300.781 214.704 300.781C214.704 300.781 218.356 297.938 220.184 296.115C222.013 294.292 243.513 275.613 243.513 275.613L233.167 251.071Z" fill="#3F3D56"/>
<path opacity="0.1" d="M233.167 251.071L225.659 253.287C225.659 253.287 206.996 278.666 205.578 279.275C204.159 279.885 214.704 300.781 214.704 300.781C214.704 300.781 218.356 297.938 220.184 296.115C222.013 294.292 243.513 275.613 243.513 275.613L233.167 251.071Z" fill="black"/>
<path opacity="0.1" d="M374.783 304.211L362.221 305.241L348.922 258.557L357.916 257.731C362.005 262.364 367.253 268.099 368.909 268.924C369.038 268.989 369.16 269.065 369.275 269.152C369.836 271.38 370.187 273.656 370.322 275.951C371.541 293.682 373.159 297.157 373.159 297.157C373.159 297.157 373.858 300.016 374.783 304.211Z" fill="black"/>
<path d="M416.979 416.83C416.636 416.78 416.159 416.73 415.577 416.674L415.023 416.624C407.637 415.982 387.389 415.001 387.389 415.001C386.998 413.21 386.512 411.442 385.932 409.704C385.854 409.454 385.766 409.194 385.677 408.933C383.771 403.392 380.175 395.79 374.401 393.906C365.069 390.864 359.595 387.411 364.465 379.698C369.336 371.985 366.898 367.325 366.898 367.325C366.898 367.325 360.154 350.895 357.849 348.867C356.486 347.665 353.112 340.921 350.529 334.621C350.28 334.011 350.031 333.396 349.803 332.792C348.352 329.085 347.288 325.76 347.221 324.109C347.033 319.837 339.369 284.318 338.067 278.311C337.951 277.757 337.884 277.447 337.884 277.447C337.884 277.447 337.884 277.347 337.835 277.164C337.48 274.992 335.54 260.657 345.393 258.773L357.849 257.626C358.265 257.659 367.929 258.551 369.12 275.912C370.339 293.644 371.957 297.118 371.957 297.118C371.957 297.118 377.033 317.62 377.437 328.564C377.842 339.508 389.911 367.114 389.911 367.114C389.911 367.114 401.78 389.833 402.799 395.723C403.281 398.494 403.808 402.129 405.21 405.077C405.298 405.265 405.393 405.448 405.487 405.631C407.066 408.595 409.648 410.729 414.164 410.33C414.854 410.275 415.547 410.275 416.237 410.33C416.532 410.349 416.826 410.384 417.118 410.435C422.77 411.394 420.886 417.367 416.979 416.83Z" fill="#403E58"/>
<path opacity="0.1" d="M353.909 293.854C353.704 310.921 352.895 325.738 352.895 325.738C352.895 325.738 351.876 329.534 350.524 334.604C348.717 330.171 347.293 326.01 347.199 324.076C346.983 319.443 337.84 277.447 337.84 277.447C337.84 277.447 337.84 277.347 337.79 277.164L339.053 277.447C339.053 277.447 354.087 276.787 353.909 293.854Z" fill="black"/>
<path d="M352.668 293.854C352.463 310.921 351.654 325.738 351.654 325.738C351.654 325.738 350.873 328.653 349.776 332.792C347.371 341.841 343.426 356.752 342.728 359.822C341.713 364.255 328.32 395.524 328.32 395.524C328.32 395.524 325.677 405.066 325.677 407.498C325.677 409.931 323.849 419.689 323.849 419.689V428.411C323.849 428.411 323.849 436.562 323.372 442.003C323.328 442.441 323.284 442.862 323.245 443.255C323.04 444.984 322.779 446.275 322.43 446.669C321.017 448.298 314.927 458.034 314.927 458.034C314.927 458.034 314.141 458.034 312.933 458.006C310.162 457.923 305.131 457.59 302.21 456.26C301.353 455.954 300.623 455.369 300.138 454.598C298.653 451.634 299.584 444.524 299.983 441.959C300.072 441.36 300.138 441.006 300.138 441.006C300.138 441.006 300.138 440.939 300.188 440.817C300.659 438.839 304.682 421.7 302.576 417.877C300.36 413.821 307.652 405.099 307.652 405.099C307.652 405.099 311.503 391.905 311.304 387.04C311.304 387.04 316.784 363.097 315.36 356.403C314.933 354.38 315.277 349.105 315.964 342.711C316.856 334.56 318.302 324.591 319.427 317.277C320.341 311.309 321.045 307.103 321.045 307.103C321.045 307.103 320.707 306.998 320.169 306.876C318.762 306.554 315.964 306.128 314.346 307.303C312.129 308.926 312.922 290.058 312.922 290.058L330.958 275.951L337.84 277.447C338.306 277.434 338.773 277.45 339.237 277.497C342.977 277.829 352.835 280.007 352.668 293.854Z" fill="#403E58"/>
<path d="M421.811 419.539C421.507 419.936 421.117 420.258 420.669 420.481C417.999 421.905 403.797 426.166 397.302 425.352C393.835 424.944 390.429 424.124 387.156 422.908C386.395 422.626 385.654 422.291 384.94 421.905H384.907C383.638 421.057 381.77 413.411 381.366 411.709C381.322 411.493 381.288 411.371 381.288 411.371C381.288 411.371 372.977 394.748 369.724 400.217L371.94 427.408H368.898C368.898 427.408 368.494 400.416 360.986 393.113C360.986 393.113 358.813 389.135 363.418 390.276C368.023 391.418 379.044 398.798 380.263 403.06C381.114 405.662 382.228 408.17 383.588 410.546C384.452 412.119 385.117 413.2 385.117 413.2L414.951 416.214L421.639 416.885C421.639 416.885 422.714 418.254 421.811 419.539Z" fill="#3F3D56"/>
<path opacity="0.1" d="M421.811 419.539C421.507 419.936 421.117 420.258 420.669 420.481C417.999 421.905 403.797 426.166 397.302 425.352C393.835 424.944 390.429 424.124 387.156 422.908C386.395 422.626 385.654 422.291 384.94 421.905H384.907C391.429 420.742 405.836 418.392 415.101 418.581C417.943 418.603 420.309 418.913 421.811 419.539Z" fill="black"/>
<path opacity="0.1" d="M414.962 415.588C414.962 415.921 414.962 416.27 414.995 416.63C407.609 415.987 387.362 415.006 387.362 415.006C386.913 412.942 386.341 410.907 385.649 408.911C390.98 406.467 398.616 403.835 405.193 405.066C406.739 408.318 409.355 410.745 414.148 410.319C414.837 410.264 415.53 410.264 416.22 410.319C415.387 411.95 414.956 413.756 414.962 415.588Z" fill="black"/>
<path opacity="0.1" d="M415.572 416.192C415.572 416.347 415.572 416.514 415.572 416.674L415.017 416.624C407.631 415.982 387.384 415.001 387.384 415.001C386.993 413.21 386.506 411.442 385.926 409.704C391.179 407.254 398.848 404.528 405.492 405.642C407.071 408.606 409.654 410.74 414.17 410.341C414.859 410.286 415.552 410.286 416.242 410.341C416.537 410.36 416.832 410.395 417.123 410.446C416.106 412.19 415.571 414.173 415.572 416.192Z" fill="black"/>
<path d="M414.962 416.192C414.96 416.98 415.024 417.766 415.156 418.542H415.09L387.157 422.908C386.395 422.626 385.655 422.291 384.94 421.905H384.907C383.638 421.057 381.77 413.411 381.366 411.709C382.009 411.36 382.762 410.967 383.61 410.546C389.672 407.515 400.472 403.215 408.473 406.711C408.473 406.711 414.968 409.665 417.4 409.199C417.389 409.177 414.984 411.665 414.962 416.192Z" fill="#3F3D56"/>
<path opacity="0.1" d="M323.25 443.239C323.045 444.968 322.785 446.259 322.436 446.652C321.023 448.281 314.933 458.017 314.933 458.017C314.933 458.017 314.135 458.017 312.91 457.989C312.75 455.368 311.752 451.046 307.02 450.952C303.28 450.88 302.305 453.695 302.188 456.244C301.331 455.938 300.601 455.352 300.116 454.581C298.631 451.617 299.562 444.508 299.961 441.942C302.626 442.867 313.038 446.092 323.25 443.239Z" fill="black"/>
<path opacity="0.1" d="M323.378 441.986C323.333 442.424 323.289 442.845 323.25 443.239C323.045 444.968 322.785 446.259 322.436 446.652C321.023 448.281 314.933 458.017 314.933 458.017C314.933 458.017 314.146 458.017 312.938 457.989C312.977 455.85 312.6 449.849 307.02 449.733C302.665 449.65 302.033 453.484 302.188 456.244C301.331 455.938 300.601 455.352 300.116 454.581C298.631 451.617 299.562 444.508 299.961 441.942C300.049 441.344 300.116 440.989 300.116 440.989C300.116 440.989 300.116 440.922 300.166 440.801C303.136 441.803 313.376 444.835 323.378 441.986Z" fill="black"/>
<path d="M299.307 441.078C299.307 441.078 312.19 446.248 324.364 442.291L325.095 456.593C325.095 456.593 313.403 460.693 312.905 459.364C312.905 459.364 313.813 450.498 307.02 450.37C300.226 450.243 302.554 459.641 302.554 459.641C302.554 459.641 297.384 458.045 297.484 456.726C297.583 455.407 298.226 442.324 299.307 441.078Z" fill="#3F3D56"/>
<path opacity="0.1" d="M359.035 258.219C347.498 254.772 340.45 273.934 339.253 277.48C339.131 277.835 339.07 278.034 339.07 278.034C338.721 278.112 338.372 278.195 338.04 278.289C318.158 283.503 319.355 301.562 320.147 306.821C318.74 306.499 315.941 306.073 314.323 307.247C312.107 308.871 312.899 290.003 312.899 290.003L330.958 275.951L337.84 277.447C337.84 277.447 337.84 277.347 337.79 277.164C337.436 274.992 335.496 260.657 345.348 258.773L357.805 257.626L359.035 258.219Z" fill="black"/>
<path d="M252.644 290.84L248.588 300.781C248.588 300.781 231.749 324.115 247.17 334.46C262.591 344.805 315.326 342.04 315.326 342.04L319.205 307.685C319.205 307.685 313.309 283.154 337.84 277.447C337.84 277.447 345.093 253.836 357.788 257.631L333.568 245.391L300.321 257.77L272.116 272.986L252.644 290.84Z" fill="#3F3D56"/>
<path opacity="0.1" d="M252.644 290.84L248.588 300.781C248.588 300.781 231.749 324.115 247.17 334.46C262.591 344.805 315.326 342.04 315.326 342.04L319.205 307.685C319.205 307.685 313.309 283.154 337.84 277.447C337.84 277.447 345.093 253.836 357.788 257.631L333.568 245.391L300.321 257.77L272.116 272.986L252.644 290.84Z" fill="black"/>
<path opacity="0.1" d="M253.658 309.303C253.658 309.303 258.734 297.284 265.023 293.854C271.313 290.424 253.658 309.303 253.658 309.303Z" fill="black"/>
<path opacity="0.1" d="M275.369 287.587C275.369 287.587 320.612 258.169 337.048 258.773L275.369 287.587Z" fill="black"/>
<path opacity="0.1" d="M289.737 184.455C298.138 185.286 304.216 193.542 312.545 194.889C313.247 195.054 313.982 195.013 314.661 194.772C316.789 193.836 316.085 190.672 315.038 188.599C313.464 185.489 311.889 182.38 310.312 179.274C309.148 176.98 307.929 174.619 305.962 172.957C304.299 171.571 302.277 170.74 300.238 170.103C292.225 167.504 283.193 166.85 275.585 170.458C271.307 172.491 259.782 182.914 265.816 187.929C271.224 192.428 283.392 183.823 289.737 184.455Z" fill="black"/>
<path d="M289.737 183.845C298.138 184.676 304.216 192.938 312.545 194.279C313.247 194.444 313.982 194.404 314.661 194.163C316.789 193.226 316.085 190.062 315.038 187.99C313.464 184.88 311.889 181.771 310.312 178.664C309.148 176.37 307.929 174.01 305.962 172.347C304.299 170.962 302.277 170.131 300.238 169.494C292.225 166.9 283.193 166.241 275.585 169.848C271.307 171.882 259.782 182.305 265.816 187.32C271.224 191.819 283.392 183.214 289.737 183.845Z" fill="#3F3D56"/>
<path opacity="0.1" d="M250.5 288.141C255.636 288.718 260.837 288.151 265.727 286.479L250.5 288.141Z" fill="black"/>
<path opacity="0.1" d="M202.408 284.379C202.408 284.379 206.287 284.933 206.287 287.593C206.287 290.252 202.408 284.379 202.408 284.379Z" fill="black"/>
<path opacity="0.1" d="M204.337 294.691C204.337 294.691 205.046 293.455 206.265 295.799C207.484 298.143 204.337 294.691 204.337 294.691Z" fill="black"/>
<path opacity="0.1" d="M314.661 192.944C313.981 193.184 313.247 193.226 312.545 193.066C304.233 191.719 298.138 183.463 289.737 182.626C283.387 181.994 271.224 190.6 265.81 186.1C265.352 185.741 264.97 185.294 264.685 184.786C264.399 184.279 264.217 183.72 264.148 183.141C264.034 183.923 264.127 184.72 264.419 185.453C264.711 186.187 265.191 186.83 265.81 187.32C271.224 191.819 283.387 183.213 289.737 183.845C298.132 184.676 304.216 192.938 312.545 194.279C313.247 194.444 313.981 194.404 314.661 194.163C315.864 193.609 316.157 192.384 315.997 191.027C315.967 191.437 315.828 191.831 315.593 192.169C315.358 192.506 315.036 192.774 314.661 192.944Z" fill="black"/>
<path opacity="0.1" d="M306.35 282.5C306.35 282.5 331.141 276.017 337.857 277.447L306.35 282.5Z" fill="black"/>
<path opacity="0.5" d="M180.26 438.894L181.446 424.177L193.154 410.651C193.154 410.651 180.376 414.087 164.745 409.798L177.04 424.205L177.511 438.894C173.771 439.31 170.934 441.316 170.934 443.732C170.934 446.447 174.525 448.652 178.947 448.652C183.369 448.652 186.965 446.436 186.965 443.732C186.965 441.299 184.061 439.277 180.26 438.894Z" fill="#D4DFEC"/>
<path opacity="0.5" d="M166.174 410.258L176.038 421.168C176.457 421.634 176.969 422.006 177.543 422.259C178.116 422.512 178.736 422.641 179.362 422.637C179.991 422.637 180.612 422.504 181.186 422.246C181.759 421.988 182.271 421.611 182.687 421.14L192.052 410.612C192.052 410.612 180.41 414.053 166.174 410.258Z" fill="#5E9880"/>
<path opacity="0.5" d="M179.384 413.588C188.345 413.588 195.609 410.799 195.609 407.36C195.609 403.92 188.345 401.131 179.384 401.131C170.424 401.131 163.16 403.92 163.16 407.36C163.16 410.799 170.424 413.588 179.384 413.588Z" fill="#D4DFEC"/>
<path d="M179.146 412.773C187.1 412.773 193.548 410.558 193.548 407.825C193.548 405.092 187.1 402.877 179.146 402.877C171.192 402.877 164.745 405.092 164.745 407.825C164.745 410.558 171.192 412.773 179.146 412.773Z" fill="#5E9880"/>
<path opacity="0.5" d="M183.269 413.411L180.809 419.866L183.069 413.427" fill="#6C63FF"/>
<path opacity="0.5" d="M183.374 412.557L189.813 394.238C189.829 394.192 189.855 394.15 189.888 394.114C189.921 394.079 189.961 394.05 190.006 394.03C190.05 394.01 190.098 393.999 190.147 393.997C190.195 393.996 190.244 394.004 190.289 394.022C190.376 394.058 190.445 394.126 190.482 394.212C190.52 394.297 190.522 394.394 190.489 394.482L183.601 412.535" fill="#3F3D56"/>
<path d="M186.1 404.805L189.813 394.238C189.83 394.192 189.855 394.15 189.888 394.114C189.921 394.079 189.961 394.05 190.006 394.03C190.05 394.01 190.098 393.999 190.147 393.997C190.196 393.996 190.244 394.004 190.289 394.022C190.376 394.058 190.445 394.126 190.482 394.212C190.52 394.297 190.522 394.394 190.489 394.482L186.527 404.872" fill="#3F3D56"/>
<path d="M187.186 405.803C188.928 405.803 190.339 404.391 190.339 402.65C190.339 400.908 188.928 399.497 187.186 399.497C185.445 399.497 184.033 400.908 184.033 402.65C184.033 404.391 185.445 405.803 187.186 405.803Z" fill="#6C63FF"/>
<path opacity="0.5" d="M187.186 405.803C188.928 405.803 190.339 404.391 190.339 402.65C190.339 400.908 188.928 399.497 187.186 399.497C185.445 399.497 184.033 400.908 184.033 402.65C184.033 404.391 185.445 405.803 187.186 405.803Z" fill="white"/>
<path d="M187.53 403.575C188.265 403.575 188.86 402.98 188.86 402.245C188.86 401.511 188.265 400.915 187.53 400.915C186.796 400.915 186.2 401.511 186.2 402.245C186.2 402.98 186.796 403.575 187.53 403.575Z" fill="#6C63FF"/>
<path opacity="0.25" d="M187.53 403.575C188.265 403.575 188.86 402.98 188.86 402.245C188.86 401.511 188.265 400.915 187.53 400.915C186.796 400.915 186.2 401.511 186.2 402.245C186.2 402.98 186.796 403.575 187.53 403.575Z" fill="black"/>
<path opacity="0.3" d="M184.106 403.276C184.208 403.891 184.492 404.463 184.919 404.917C185.347 405.372 185.9 405.689 186.508 405.829C187.116 405.969 187.753 405.926 188.336 405.704C188.919 405.482 189.424 405.092 189.785 404.583C187.948 403.934 186.042 403.495 184.106 403.276Z" fill="#6C63FF"/>
<path d="M68.2341 288.834H65.0867V359.706H68.2341V288.834Z" fill="#535461"/>
<path d="M88.016 359.489L87.8165 362.681L87.5395 367.186L87.4231 369.064L87.1461 373.575L87.0242 375.453L86.7471 379.958L83.5665 431.203C83.4297 433.407 82.4577 435.476 80.8485 436.989C79.2393 438.501 77.114 439.343 74.9056 439.343H58.4095C56.2011 439.343 54.0758 438.501 52.4666 436.989C50.8574 435.476 49.8854 433.407 49.7486 431.203L46.568 379.958L46.291 375.453L46.1746 373.575L45.892 369.064L45.7756 367.186L45.4986 362.681L45.2991 359.489C45.2612 358.877 45.3493 358.263 45.5578 357.686C45.7662 357.108 46.0908 356.58 46.5113 356.133C46.9318 355.686 47.4395 355.33 48.0029 355.087C48.5664 354.843 49.1737 354.718 49.7874 354.718H83.5332C84.1465 354.719 84.7532 354.845 85.316 355.088C85.8788 355.332 86.3858 355.688 86.8057 356.135C87.2256 356.582 87.5497 357.11 87.7578 357.687C87.966 358.264 88.0538 358.877 88.016 359.489Z" fill="#3F3D56"/>
<path d="M87.8165 362.681L87.5394 367.186H45.7756L45.4985 362.681H87.8165Z" fill="#9D9CB5"/>
<path d="M87.4232 369.064L87.1461 373.575H46.1747L45.8921 369.064H87.4232Z" fill="#9D9CB5"/>
<path d="M87.0242 375.453L86.7472 379.958H46.5736L46.291 375.453H87.0242Z" fill="#9D9CB5"/>
<path d="M40.6888 315.398C59.0245 328.664 66.6547 349.404 66.6547 349.404C66.6547 349.404 44.5676 348.645 26.2318 335.385C7.89607 322.125 0.265869 301.379 0.265869 301.379C0.265869 301.379 22.3585 302.138 40.6888 315.398Z" fill="#5E9880"/>
<path d="M0.265869 301.379C0.265869 301.379 23.1953 314.124 30.5539 324.652C37.9126 335.18 66.6547 349.41 66.6547 349.41" stroke="#535461" stroke-width="2" stroke-miterlimit="10"/>
<path d="M52.5248 288.695C62.4989 295.899 66.6548 307.203 66.6548 307.203C66.6548 307.203 54.636 306.793 44.6563 299.573C34.6766 292.352 30.5208 281.065 30.5208 281.065C30.5208 281.065 42.5451 281.492 52.5248 288.695Z" fill="#5E9880"/>
<path d="M30.5208 281.048C30.5208 281.048 42.9995 287.975 47.0058 293.71C51.012 299.445 66.6548 307.186 66.6548 307.186" stroke="#535461" stroke-width="2" stroke-miterlimit="10"/>
<path d="M81.1562 306.615C69.6971 319.211 67.27 335.673 67.27 335.673C67.27 335.673 83.4281 331.706 94.8928 319.111C106.357 306.516 108.779 290.053 108.779 290.053C108.779 290.053 92.6209 294.015 81.1562 306.615Z" fill="#5E9880"/>
<path d="M108.779 290.053C108.779 290.053 93.8455 302.964 90.0553 311.863C86.2652 320.762 67.27 335.69 67.27 335.69" stroke="#535461" stroke-width="2" stroke-miterlimit="10"/>
<path opacity="0.1" d="M479.866 355.804C479.866 355.804 483.069 359.988 478.387 366.333C473.704 372.677 469.848 377.969 471.41 381.931C471.41 381.931 478.47 370.195 484.216 370.029C489.962 369.862 486.189 362.864 479.866 355.804Z" fill="black"/>
<path opacity="0.1" d="M479.866 355.804C480.146 356.208 480.367 356.651 480.52 357.118C486.127 363.706 489.114 369.862 483.723 370.006C478.702 370.151 472.679 379.127 471.238 381.394C471.284 381.569 471.341 381.741 471.41 381.909C471.41 381.909 478.47 370.173 484.216 370.006C489.962 369.84 486.188 362.864 479.866 355.804Z" fill="black"/>
<path d="M485.817 361.141C485.817 362.615 485.651 363.806 485.446 363.806C485.241 363.806 485.08 362.615 485.08 361.141C485.08 359.667 485.285 360.359 485.49 360.359C485.695 360.359 485.817 359.667 485.817 361.141Z" fill="#3F3D56"/>
<path d="M487.862 362.897C486.565 363.606 485.44 364.033 485.341 363.85C485.241 363.667 486.211 362.953 487.507 362.249C488.804 361.545 488.289 362.06 488.388 362.249C488.488 362.437 489.153 362.193 487.862 362.897Z" fill="#3F3D56"/>
<path d="M462.954 355.804C462.954 355.804 459.752 359.988 464.428 366.333C469.105 372.677 472.967 377.969 471.41 381.931C471.41 381.931 464.351 370.195 458.599 370.029C452.847 369.862 456.632 362.864 462.954 355.804Z" fill="#3F3D56"/>
<path d="M479.866 355.804C479.866 355.804 483.069 359.988 478.387 366.333C473.704 372.677 469.848 377.969 471.41 381.931C471.41 381.931 478.47 370.195 484.216 370.029C489.962 369.862 486.189 362.864 479.866 355.804Z" fill="#D4DFEC"/>
<path opacity="0.1" d="M462.954 355.804C462.954 355.804 459.752 359.988 464.428 366.333C469.105 372.677 472.967 377.969 471.41 381.931C471.41 381.931 464.351 370.195 458.599 370.029C452.847 369.862 456.632 362.864 462.954 355.804Z" fill="black"/>
<path opacity="0.1" d="M462.954 355.804C462.674 356.208 462.454 356.651 462.3 357.118C456.693 363.706 453.706 369.862 459.092 370.006C464.112 370.151 470.136 379.127 471.582 381.394C471.534 381.568 471.477 381.74 471.41 381.909C471.41 381.909 464.351 370.151 458.599 370.006C452.847 369.862 456.632 362.864 462.954 355.804Z" fill="black"/>
<path d="M456.975 361.141C456.975 362.615 457.142 363.806 457.347 363.806C457.552 363.806 457.718 362.615 457.718 361.141C457.718 359.667 457.513 360.359 457.308 360.359C457.103 360.359 456.975 359.667 456.975 361.141Z" fill="#D4DFEC"/>
<path d="M454.958 362.897C456.249 363.606 457.38 364.033 457.48 363.85C457.579 363.667 456.604 362.953 455.313 362.249C454.022 361.545 454.526 362.06 454.432 362.249C454.338 362.437 453.651 362.193 454.958 362.897Z" fill="#D4DFEC"/>
<path d="M488.638 376.246L488.477 377.554L488.255 379.399L488.161 380.169L487.934 382.02L487.84 382.79L487.612 384.635L485.052 405.636C484.825 407.509 481.761 408.961 478.065 408.961H464.733C461.031 408.961 457.973 407.498 457.745 405.636L455.18 384.635L454.958 382.79L454.864 382.02L454.631 380.169L454.543 379.399L454.315 377.554L454.205 376.246C454.077 375.187 455.734 374.29 457.829 374.29H485.052C487.108 374.312 488.77 375.21 488.638 376.246Z" fill="#3F3D56"/>
<path d="M488.482 377.576L488.255 379.421H454.565L454.338 377.576H488.482Z" fill="#9D9CB5"/>
<path d="M488.161 380.191L487.939 382.042H454.886L454.659 380.191H488.161Z" fill="#9D9CB5"/>
<path d="M487.84 382.812L487.618 384.657H455.202L454.981 382.812H487.84Z" fill="#9D9CB5"/>
</g>
<defs>
<linearGradient id="paint0_linear" x1="302.521" y1="461.203" x2="302.521" y2="141.217" gradientUnits="userSpaceOnUse">
<stop stop-color="#808080" stop-opacity="0.25"/>
<stop offset="0.54" stop-color="#808080" stop-opacity="0.12"/>
<stop offset="1" stop-color="#808080" stop-opacity="0.1"/>
</linearGradient>
<clipPath id="clip0">
<rect width="556.833" height="471" fill="white"/>
</clipPath>
</defs>
</svg>
